<svg width="24" height="25" viewBox="0 0 24 25" fill="none" xmlns="http://www.w3.org/2000/svg">
<rect y="0.0583801" width="24" height="24" rx="12" fill="#00D6A8"/>
<path d="M12.2659 15.6768L9.80392 15.6334C9.0068 15.6183 8.20769 15.6485 7.4262 15.4918C6.23738 15.2578 6.15316 14.1101 6.06503 13.1474C5.9436 11.7941 5.99061 10.4161 6.21976 9.07401C6.34913 8.32096 6.85824 7.87161 7.64556 7.82271C10.3033 7.64526 12.9788 7.66629 15.6307 7.74908C15.9108 7.75667 16.1928 7.79815 16.4689 7.84537C17.8322 8.07566 17.8654 9.37621 17.9538 10.471C18.0419 11.5771 18.0047 12.6889 17.8363 13.7875C17.7011 14.6971 17.4426 15.4599 16.3514 15.5335C14.9843 15.6298 13.6485 15.7073 12.2776 15.6827C12.2776 15.6768 12.2698 15.6768 12.2659 15.6768ZM10.8185 13.374C11.8487 12.8039 12.8593 12.2433 13.8837 11.677C12.8515 11.1069 11.8428 10.5463 10.8185 9.98008V13.374Z" fill="#192031"/>
</svg>
