<svg width="24" height="25" viewBox="0 0 24 25" fill="none" xmlns="http://www.w3.org/2000/svg">
<rect y="0.0583801" width="24" height="24" rx="12" fill="#00D6A8"/>
<path d="M6 7.54688C6 7.07241 6.39722 6.68729 6.88688 6.68729H17.1131C17.603 6.68729 18 7.07241 18 7.54688V17.8278C18 18.3024 17.603 18.6873 17.1131 18.6873H6.88688C6.39727 18.6873 6 18.3025 6 17.828V7.54674V7.54688Z" fill="#192031"/>
<path d="M9.81603 16.6871V11.2893H8.10108V16.6871H9.81621H9.81603ZM8.95891 10.5525C9.55683 10.5525 9.92907 10.138 9.92907 9.62C9.91787 9.0902 9.55683 8.68729 8.97029 8.68729C8.38334 8.68729 8 9.0902 8 9.61995C8 10.1379 8.37211 10.5524 8.94768 10.5524H8.95878L8.95891 10.5525ZM10.7653 16.6871H12.4801V13.6731C12.4801 13.5119 12.4913 13.3504 12.5366 13.2353C12.6605 12.9129 12.9427 12.5791 13.4165 12.5791C14.0369 12.5791 14.2852 13.074 14.2852 13.7997V16.6871H16V13.5922C16 11.9343 15.1541 11.1628 14.0258 11.1628C13.1008 11.1628 12.6945 11.7037 12.4688 12.0721H12.4802V11.2895H10.7654C10.7877 11.7959 10.7652 16.6873 10.7652 16.6873L10.7653 16.6871Z" fill="#00D6A8"/>
</svg>
