<svg width="24" height="25" viewBox="0 0 24 25" fill="none" xmlns="http://www.w3.org/2000/svg">
<rect y="0.0583801" width="24" height="24" rx="12" fill="#00D6A8"/>
<g clip-path="url(#clip0_485_248)">
<path d="M12.0023 9.20473C10.3989 9.20473 9.10566 10.4778 9.10566 12.0561C9.10566 13.6344 10.3989 14.9075 12.0023 14.9075C13.6057 14.9075 14.8989 13.6344 14.8989 12.0561C14.8989 10.4778 13.6057 9.20473 12.0023 9.20473ZM12.0023 13.9099C10.9662 13.9099 10.1191 13.0785 10.1191 12.0561C10.1191 11.0337 10.9636 10.2023 12.0023 10.2023C13.041 10.2023 13.8855 11.0337 13.8855 12.0561C13.8855 13.0785 13.0384 13.9099 12.0023 13.9099ZM15.693 9.08809C15.693 9.45785 15.3905 9.75316 15.0174 9.75316C14.6418 9.75316 14.3418 9.45537 14.3418 9.08809C14.3418 8.72081 14.6443 8.42302 15.0174 8.42302C15.3905 8.42302 15.693 8.72081 15.693 9.08809ZM17.6115 9.76309C17.5687 8.87219 17.362 8.08304 16.6989 7.43285C16.0384 6.78267 15.2367 6.57918 14.3317 6.53451C13.3989 6.48239 10.6031 6.48239 9.67037 6.53451C8.76785 6.5767 7.96616 6.78019 7.30314 7.43037C6.64012 8.08055 6.43591 8.86971 6.39054 9.76061C6.33759 10.6788 6.33759 13.4309 6.39054 14.3491C6.43339 15.24 6.64012 16.0292 7.30314 16.6794C7.96616 17.3295 8.76532 17.533 9.67037 17.5777C10.6031 17.6298 13.3989 17.6298 14.3317 17.5777C15.2367 17.5355 16.0384 17.332 16.6989 16.6794C17.3594 16.0292 17.5662 15.24 17.6115 14.3491C17.6645 13.4309 17.6645 10.6813 17.6115 9.76309ZM16.4065 15.3343C16.2099 15.8207 15.8292 16.1954 15.3325 16.3915C14.5888 16.6818 12.8241 16.6148 12.0023 16.6148C11.1804 16.6148 9.41322 16.6794 8.67205 16.3915C8.17793 16.1979 7.79726 15.8232 7.5981 15.3343C7.30314 14.6022 7.37121 12.8651 7.37121 12.0561C7.37121 11.2471 7.30566 9.50748 7.5981 8.77789C7.79474 8.29149 8.17541 7.91677 8.67205 7.72072C9.41574 7.43037 11.1804 7.49737 12.0023 7.49737C12.8241 7.49737 14.5914 7.43285 15.3325 7.72072C15.8267 7.91429 16.2073 8.28901 16.4065 8.77789C16.7015 9.50997 16.6334 11.2471 16.6334 12.0561C16.6334 12.8651 16.7015 14.6047 16.4065 15.3343Z" fill="#192031"/>
</g>
<defs>
<clipPath id="clip0_485_248">
<rect width="11.2941" height="12.7059" fill="white" transform="translate(6.35278 5.70544)"/>
</clipPath>
</defs>
</svg>
