<svg width="24" height="24" viewBox="0 0 24 24" fill="none" xmlns="http://www.w3.org/2000/svg">
<rect width="24" height="24" rx="12" fill="black"/>
<path d="M6 7.4885C6 7.01403 6.39722 6.62891 6.88688 6.62891H17.1131C17.603 6.62891 18 7.01403 18 7.4885V17.7695C18 18.2441 17.603 18.6289 17.1131 18.6289H6.88688C6.39727 18.6289 6 18.2441 6 17.7696V7.48836V7.4885Z" fill="white"/>
<path d="M9.81603 16.6287V11.2309H8.10108V16.6287H9.81621H9.81603ZM8.95891 10.4941C9.55683 10.4941 9.92907 10.0796 9.92907 9.56162C9.91787 9.03182 9.55683 8.62891 8.97029 8.62891C8.38334 8.62891 8 9.03182 8 9.56157C8 10.0796 8.37211 10.494 8.94768 10.494H8.95878L8.95891 10.4941ZM10.7653 16.6287H12.4801V13.6147C12.4801 13.4536 12.4913 13.292 12.5366 13.177C12.6605 12.8545 12.9427 12.5207 13.4165 12.5207C14.0369 12.5207 14.2852 13.0157 14.2852 13.7414V16.6287H16V13.5338C16 11.8759 15.1541 11.1044 14.0258 11.1044C13.1008 11.1044 12.6945 11.6453 12.4688 12.0137H12.4802V11.2311H10.7654C10.7877 11.7375 10.7652 16.6289 10.7652 16.6289L10.7653 16.6287Z" fill="black"/>
</svg>
