<svg width="182" height="56" viewBox="0 0 182 56" fill="none" xmlns="http://www.w3.org/2000/svg">
<path d="M16.7247 8.12671C20.6564 8.12671 23.839 10.8269 24.6503 14.5704H32.888C32.451 10.7041 30.7661 7.45158 27.7082 4.9355C24.6503 2.41943 20.9684 1.19214 16.6624 1.19214C11.857 1.19214 7.86309 2.66492 4.74283 5.61063C1.56005 8.61768 0 12.3612 0 16.9638C0 21.5666 1.56005 25.31 4.74268 28.2557C7.86293 31.2014 11.857 32.6742 16.6622 32.6742C20.9683 32.6742 24.6502 31.4468 27.7081 28.9309C30.7659 26.4146 32.451 23.2236 32.8878 19.3574H24.7126C23.9013 23.1008 20.6563 25.7397 16.7246 25.7397C11.9192 25.7397 8.36206 22.0576 8.36206 16.964C8.36221 11.8087 11.7946 8.12671 16.7247 8.12671Z" fill="white"/>
<path d="M80.106 8.55844V1.80803H71.9932V32.124H80.106V17.5184C80.106 12.1178 84.4743 8.80408 91.2766 8.80408V0.825928C86.2217 0.825928 82.2901 3.64897 80.106 8.55844Z" fill="white"/>
<path d="M108.3 1.19214C103.494 1.19214 99.5004 2.66492 96.3802 5.61063C93.1976 8.61768 91.6372 12.3613 91.6372 16.9638C91.6372 21.5666 93.1974 25.31 96.3802 28.2557C99.5004 31.2014 103.495 32.6742 108.3 32.6742C112.107 32.6742 115.539 31.6311 118.534 29.4832C121.53 27.3353 123.464 24.635 124.338 21.321H116.163C114.977 24.0827 111.919 26.1691 108.362 26.1691C104.119 26.1691 100.749 23.4076 99.7501 19.4187H124.65C124.837 18.7436 124.9 17.9459 124.9 17.0252C124.837 12.4227 123.277 8.61768 120.157 5.61063C117.037 2.66492 113.105 1.19214 108.3 1.19214ZM100.062 13.3432C101.373 9.90646 104.555 7.69721 108.362 7.69721C112.294 7.69721 115.726 9.9678 116.974 13.3432H100.062Z" fill="white"/>
<path d="M151.191 1.62158H145.678L131.065 21.8537V25.2037H146.574V32.1241H151.191V25.2037H156.66V21.413H151.191V1.62158ZM146.574 21.413H135.727L146.619 6.69062L146.574 21.413Z" fill="white"/>
<path d="M164.771 28.3354C164.816 27.8063 164.906 27.3216 165.085 26.8367C165.444 25.911 166.654 24.8091 167.192 24.2801C167.461 24.0157 168.044 23.6191 168.895 23.09C169.747 22.5611 170.285 22.2085 170.509 22.0762C170.733 21.9441 171.405 21.5473 172.437 20.9743C175.081 19.4316 176.426 18.5059 178.398 16.6987C180.325 14.8914 181.267 12.6877 181.267 10.0869C181.267 7.48619 180.281 5.37043 178.353 3.69542C176.426 2.06456 173.916 1.22705 170.913 1.22705C167.865 1.22705 165.354 2.06456 163.382 3.78357C161.41 5.50273 160.334 7.83879 160.2 10.7921H164.637C164.861 7.13359 167.416 5.01782 170.823 5.01782C174.274 5.01782 176.695 7.17774 176.695 10.3073C176.695 13.7013 174.006 16.0375 169.03 18.9027C167.865 19.5637 166.968 20.0928 166.386 20.4894C165.803 20.886 164.996 21.459 163.965 22.2965C162.934 23.134 162.172 23.9715 161.679 24.7209C160.603 26.3076 159.617 28.8643 159.617 31.6852V32.126H181.715V28.3352H164.771V28.3354Z" fill="white"/>
<path d="M79.572 51.4145H74.9269L74.0905 53.1581H71.9924L76.1757 44.5627H78.3233L82.5066 53.1581H80.4089L79.572 51.4145ZM78.7979 49.818L77.2495 46.5887L75.701 49.818H78.7979Z" fill="white"/>
<path d="M96.2775 48.3268V48.597C96.2775 52.0598 94.055 53.2875 91.6697 53.2875C89.0473 53.2875 86.5127 51.8386 86.5127 48.8425C86.5127 45.8342 89.0725 44.4097 91.7824 44.4097C93.2434 44.4097 94.8665 44.8395 95.928 45.4655L95.3662 47.0986C94.542 46.5954 93.3058 46.1164 91.8946 46.1164C89.9966 46.1164 88.5481 46.9146 88.5481 48.8178C88.5481 50.758 90.0593 51.5807 91.645 51.5807C92.9808 51.5807 94.0424 50.9544 94.2171 49.8492H91.8197V48.3267H96.2775V48.3268Z" fill="white"/>
<path d="M106.628 49.4867V51.0585H105.404V53.1583H103.356V51.0585H97.3501V49.3885L102.869 44.5627H105.404V49.4867H106.628ZM99.5851 49.4867H103.356V46.1835L99.5851 49.4867Z" fill="white"/>
<path d="M107.451 51.2491C108.587 51.0159 113.944 49.9107 113.944 47.504C113.944 46.4848 113.008 46.1164 111.797 46.1164C110.223 46.1164 108.849 46.7303 107.988 47.2214L107.439 45.5761C108.487 44.9744 110.111 44.4097 111.909 44.4097C113.994 44.4097 115.98 45.1832 115.98 47.3198C115.98 49.9109 113.12 50.93 111.309 51.4457H116.005V53.1524H107.451V51.2491Z" fill="white"/>
<path d="M120.199 49.7501C120.199 47.5154 121.897 46.2506 124.132 46.2506C125.193 46.2506 126.155 46.5208 127.142 47.0612L126.48 48.5468C125.743 48.0188 125.006 47.7855 124.157 47.7855C123.033 47.7855 122.084 48.4732 122.084 49.7257C122.084 50.9905 123.021 51.7149 124.145 51.7149C124.994 51.7149 125.73 51.4448 126.504 50.9168L127.191 52.4025C126.155 53.041 125.144 53.299 124.107 53.299C121.884 53.299 120.199 51.9727 120.199 49.7501Z" fill="white"/>
<path d="M127.902 49.7993C127.902 47.6995 129.5 46.2506 131.735 46.2506C133.945 46.2506 135.519 47.6872 135.519 49.787C135.519 51.8622 133.946 53.299 131.735 53.299C129.5 53.299 127.902 51.8745 127.902 49.7993ZM133.671 49.787C133.671 48.6451 132.847 47.896 131.71 47.896C130.599 47.896 129.787 48.6451 129.787 49.787C129.787 50.9168 130.599 51.6534 131.71 51.6534C132.847 51.6534 133.671 50.9168 133.671 49.787Z" fill="white"/>
<path d="M147.368 48.9888V53.1514H145.507V49.1483C145.507 48.3993 145.183 47.9327 144.483 47.9327C143.609 47.9327 143.022 48.6818 142.935 50.1798V53.1514H141.087V49.1483C141.087 48.3993 140.75 47.9327 140.063 47.9327C139.114 47.9327 138.502 48.7923 138.502 50.6095V53.1514H136.667V46.3979H138.502V48.0065C138.864 46.9874 139.613 46.2506 140.65 46.2506C141.749 46.2506 142.523 46.8401 142.81 47.9452C143.197 46.9506 143.971 46.2506 145.07 46.2506C146.481 46.2505 147.368 47.2081 147.368 48.9888Z" fill="white"/>
<path d="M156.532 49.7503C156.532 51.8254 155.108 53.2867 153.185 53.2867C152.011 53.2867 151.087 52.7219 150.551 51.7885V55.4847H148.702V46.4225H150.551V47.7364C151.075 46.8154 151.999 46.2506 153.185 46.2506C155.133 46.2508 156.532 47.6998 156.532 49.7503ZM154.646 49.7627C154.646 48.633 153.835 47.8225 152.611 47.8225C151.375 47.8225 150.551 48.633 150.551 49.7627C150.551 50.8924 151.375 51.7029 152.611 51.7029C153.835 51.7028 154.646 50.8922 154.646 49.7627Z" fill="white"/>
<path d="M164.322 49.1117V53.1515H162.462V51.4816C161.825 52.6357 160.788 53.2621 159.515 53.2621C158.466 53.2621 157.529 52.7586 157.529 51.6534C157.529 49.787 160.651 49.1116 162.437 48.8169C162.312 48.0801 161.737 47.7978 160.901 47.7978C159.977 47.7978 158.966 48.1539 158.254 48.6205L157.679 47.1961C158.591 46.6314 159.764 46.2506 160.988 46.2506C162.761 46.2506 164.322 46.9874 164.322 49.1117ZM162.462 49.8115C160.551 50.1922 159.502 50.5484 159.502 51.2113C159.502 51.629 159.927 51.7885 160.301 51.7885C161.263 51.7885 162.349 50.8063 162.462 49.8115Z" fill="white"/>
<path d="M172.837 49.3571V53.1514H171.001V49.6519C171.001 48.5222 170.502 47.9327 169.516 47.9327C168.404 47.9327 167.493 48.8905 167.493 51.1376V53.1514H165.657V46.3979H167.493V48.2766C167.93 47.0977 168.841 46.2506 170.14 46.2506C171.813 46.2505 172.837 47.3186 172.837 49.3571Z" fill="white"/>
<path d="M181.714 46.4003L178.455 53.1907C177.594 54.9343 176.957 55.7939 175.359 55.7939C174.934 55.7939 174.435 55.7447 173.823 55.6343L174.085 53.9889C174.597 54.1239 175.009 54.1854 175.359 54.1854C176.045 54.1854 176.32 53.7433 176.582 53.1784L176.645 53.0434L173.448 46.4004H175.446L177.594 51.0051L179.729 46.4004L181.714 46.4003Z" fill="white"/>
<path d="M52.4752 32.6971V30.3593H44.0735C46.5165 31.8412 49.3941 32.6971 52.4752 32.6971Z" fill="#49BEA1"/>
<path d="M52.4753 1.1759C49.3941 1.1759 46.5164 2.03178 44.0735 3.5139H52.4753V1.1759Z" fill="#49BEA1"/>
<path d="M52.4754 25.4034V8.47034H38.9553C38.4755 9.20991 38.0564 9.99142 37.7056 10.8083H46.5388C45.1639 12.0967 44.2223 13.8266 43.9495 15.7679H36.4933C36.4645 16.1532 36.4495 16.5421 36.4495 16.9347C36.4495 17.3287 36.4647 17.7192 36.4935 18.1059H43.9493C44.2222 20.0471 45.1638 21.7771 46.5387 23.0654H37.7073C38.0583 23.8823 38.4778 24.6637 38.9579 25.4034H52.4754Z" fill="#49BEA1"/>
<path d="M52.4753 25.4042C57.2304 25.4042 61.0851 21.6135 61.0851 16.9377C61.0851 12.2618 57.2304 8.47122 52.4753 8.47122V1.1759C61.3263 1.1759 68.5013 8.23166 68.5013 16.9355C68.5013 25.6393 61.3263 32.695 52.4753 32.695V25.4042Z" fill="white"/>
</svg>
