<svg width="41" height="42" viewBox="0 0 41 42" fill="none" xmlns="http://www.w3.org/2000/svg">
<rect y="0.983398" width="41" height="41" rx="20.5" fill="black"/>
<path d="M10.25 13.7751C10.25 12.9646 10.9286 12.3066 11.7651 12.3066H29.2349C30.0717 12.3066 30.75 12.9646 30.75 13.7751V31.3384C30.75 32.1492 30.0717 32.8066 29.2349 32.8066H11.7651C10.9287 32.8066 10.25 32.1493 10.25 31.3386V13.7749V13.7751Z" fill="white"/>
<path d="M16.7689 29.3919V20.1707H13.8392V29.3919H16.7692H16.7689ZM15.3047 18.9119C16.3261 18.9119 16.962 18.2039 16.962 17.319C16.9429 16.4139 16.3261 15.7256 15.3241 15.7256C14.3214 15.7256 13.6665 16.4139 13.6665 17.3189C13.6665 18.2038 14.3022 18.9119 15.2855 18.9119H15.3044L15.3047 18.9119ZM18.3905 29.3919H21.32V24.243C21.32 23.9677 21.3391 23.6918 21.4165 23.4952C21.6282 22.9443 22.1102 22.3741 22.9197 22.3741C23.9796 22.3741 24.4038 23.2196 24.4038 24.4594V29.3919H27.3332V24.1048C27.3332 21.2725 25.8881 19.9545 23.9606 19.9545C22.3803 19.9545 21.6863 20.8786 21.3007 21.5079H21.3202V20.171H18.3907C18.4289 21.0361 18.3904 29.3923 18.3904 29.3923L18.3905 29.3919Z" fill="black"/>
</svg>
