<svg width="41" height="42" viewBox="0 0 41 42" fill="none" xmlns="http://www.w3.org/2000/svg">
<rect y="0.983398" width="41" height="41" rx="20.5" fill="black"/>
<g clip-path="url(#clip0_373_3548)">
<path d="M20.5037 16.6098C17.7646 16.6098 15.5553 18.7847 15.5553 21.4809C15.5553 24.1772 17.7646 26.352 20.5037 26.352C23.2428 26.352 25.4521 24.1772 25.4521 21.4809C25.4521 18.7847 23.2428 16.6098 20.5037 16.6098ZM20.5037 24.6478C18.7336 24.6478 17.2866 23.2276 17.2866 21.4809C17.2866 19.7343 18.7293 18.3141 20.5037 18.3141C22.2781 18.3141 23.7208 19.7343 23.7208 21.4809C23.7208 23.2276 22.2738 24.6478 20.5037 24.6478ZM26.8087 16.4106C26.8087 17.0423 26.2919 17.5468 25.6545 17.5468C25.0128 17.5468 24.5003 17.038 24.5003 16.4106C24.5003 15.7832 25.0171 15.2744 25.6545 15.2744C26.2919 15.2744 26.8087 15.7832 26.8087 16.4106ZM30.0862 17.5637C30.0129 16.0418 29.6598 14.6936 28.5271 13.5829C27.3988 12.4722 26.0292 12.1245 24.4831 12.0482C22.8896 11.9592 18.1135 11.9592 16.52 12.0482C14.9782 12.1203 13.6087 12.4679 12.476 13.5786C11.3433 14.6894 10.9945 16.0375 10.917 17.5595C10.8265 19.1281 10.8265 23.8296 10.917 25.3982C10.9902 26.9201 11.3433 28.2683 12.476 29.379C13.6087 30.4897 14.9739 30.8374 16.52 30.9137C18.1135 31.0027 22.8896 31.0027 24.4831 30.9137C26.0292 30.8416 27.3988 30.494 28.5271 29.379C29.6555 28.2683 30.0086 26.9201 30.0862 25.3982C30.1766 23.8296 30.1766 19.1323 30.0862 17.5637ZM28.0275 27.0812C27.6916 27.9122 27.0413 28.5523 26.1929 28.8872C24.9224 29.3832 21.9077 29.2688 20.5037 29.2688C19.0997 29.2688 16.0807 29.379 14.8145 28.8872C13.9704 28.5565 13.3201 27.9164 12.9799 27.0812C12.476 25.8306 12.5923 22.863 12.5923 21.4809C12.5923 20.0989 12.4803 17.1271 12.9799 15.8807C13.3158 15.0497 13.9661 14.4096 14.8145 14.0747C16.085 13.5786 19.0997 13.6931 20.5037 13.6931C21.9077 13.6931 24.9267 13.5829 26.1929 14.0747C27.037 14.4053 27.6873 15.0455 28.0275 15.8807C28.5314 17.1313 28.4151 20.0989 28.4151 21.4809C28.4151 22.863 28.5314 25.8348 28.0275 27.0812Z" fill="white"/>
</g>
<defs>
<clipPath id="clip0_373_3548">
<rect width="19.2941" height="21.7059" fill="white" transform="translate(10.8525 10.6318)"/>
</clipPath>
</defs>
</svg>
