<svg width="41" height="42" viewBox="0 0 41 42" fill="none" xmlns="http://www.w3.org/2000/svg">
<rect y="0.983398" width="41" height="41" rx="20.5" fill="black"/>
<path d="M20.9542 27.6644L16.7484 27.5903C15.3866 27.5644 14.0215 27.616 12.6864 27.3484C10.6555 26.9485 10.5116 24.9879 10.3611 23.3434C10.1536 21.0313 10.234 18.6774 10.6254 16.3846C10.8464 15.0982 11.7162 14.3305 13.0612 14.247C17.6016 13.9438 22.1721 13.9797 26.7025 14.1212C27.1809 14.1341 27.6627 14.205 28.1345 14.2857C30.4633 14.6791 30.5201 16.9009 30.671 18.7712C30.8216 20.6608 30.758 22.5601 30.4703 24.4368C30.2394 25.9907 29.7977 27.2938 27.9337 27.4196C25.5982 27.5841 23.3163 27.7165 20.9742 27.6744C20.9743 27.6644 20.9608 27.6644 20.9542 27.6644ZM18.4816 23.7304C20.2416 22.7565 21.968 21.7988 23.7179 20.8314C21.9546 19.8575 20.2315 18.8998 18.4816 17.9325V23.7304Z" fill="white"/>
</svg>
